<svg width="209" height="209" viewBox="0 0 209 209" fill="none" xmlns="http://www.w3.org/2000/svg">
<path d="M71.7495 36.68C73.0336 37.9517 74.3866 39.1487 75.8914 40.1494C83.5672 45.2548 106.405 57.5392 142.627 52.5187C187.885 46.2458 181.245 91.7501 174.733 103.878C168.221 116.005 144.27 138.237 142.258 149.376C140.247 160.515 148.855 190.939 128.686 181.81C108.516 172.68 96.8646 151.298 70.3908 153.783C43.917 156.268 25.2099 144.537 36.9289 123.577C48.6478 102.617 62.6587 89.092 44.7754 65.7455C27.3886 43.0483 56.675 21.7507 71.7495 36.68Z" fill="#776FE7" fill-opacity="0.2"/>
<path d="M117.672 60.1942C117.336 59.8563 117.144 59.4017 117.136 58.9255C117.128 58.4493 117.304 57.9884 117.628 57.639L129.569 44.75C129.738 44.5674 129.943 44.4209 130.17 44.3194C130.397 44.2178 130.642 44.1632 130.891 44.1589C131.14 44.1546 131.387 44.2006 131.618 44.2943C131.848 44.3879 132.058 44.5272 132.233 44.7038L133.264 45.7419C133.439 45.9185 133.577 46.1288 133.669 46.36C133.761 46.5912 133.806 46.8387 133.799 47.0875C133.793 47.3363 133.737 47.5814 133.634 47.8078C133.531 48.0343 133.383 48.2376 133.199 48.4055L120.227 60.2564C119.875 60.5777 119.413 60.7507 118.937 60.7391C118.461 60.7275 118.007 60.5323 117.672 60.1942V60.1942Z" fill="#776FE7"/>
<path d="M110.113 55.8008C109.828 55.6743 109.602 55.4423 109.484 55.1533C109.366 54.8644 109.363 54.5408 109.478 54.2503L113.704 43.5323C113.764 43.3805 113.854 43.2423 113.968 43.1262C114.083 43.01 114.22 42.9182 114.371 42.8563C114.522 42.7945 114.684 42.7637 114.847 42.7661C115.01 42.7684 115.171 42.8036 115.321 42.8698L116.198 43.2585C116.347 43.3246 116.481 43.4202 116.592 43.5396C116.704 43.6589 116.79 43.7996 116.845 43.953C116.901 44.1064 116.925 44.2695 116.916 44.4325C116.906 44.5954 116.865 44.7548 116.792 44.9011L111.689 55.2304C111.551 55.5105 111.31 55.7262 111.016 55.8325C110.722 55.9388 110.399 55.9275 110.113 55.8008Z" fill="#776FE7"/>
<path d="M102.423 57.5526C101.449 57.728 100.472 56.8923 100.208 55.6582L95.5208 33.7463C95.2411 32.4368 95.8681 31.1913 96.9013 31.0051L98.3411 30.746C99.3742 30.5599 100.397 31.5088 100.591 32.8333L103.839 55.0044C104.021 56.2535 103.397 57.3772 102.423 57.5526Z" fill="#776FE7"/>
<path d="M178.181 78.174L157.51 75.5092C157.162 75.4721 156.81 75.5419 156.503 75.7095C156.196 75.877 155.947 76.1343 155.789 76.4469L150.293 87.3002L127.284 133.318C127.039 133.804 126.629 134.187 126.128 134.398C125.626 134.61 125.066 134.635 124.547 134.471L62.0936 114.536C61.9213 114.481 61.7385 114.468 61.5601 114.497C61.3817 114.527 61.2128 114.598 61.0674 114.705C60.922 114.813 60.8042 114.953 60.7236 115.115C60.6431 115.277 60.6021 115.456 60.6042 115.637L60.6328 118.23C60.6363 118.591 60.7535 118.941 60.9676 119.231C61.1818 119.521 61.4821 119.736 61.8256 119.846L127.904 140.937C128.64 141.172 129.302 141.598 129.821 142.171C130.34 142.744 130.698 143.444 130.86 144.2L130.882 144.303C131.456 147.46 128.345 150.052 125.279 149.122L52.8224 125.965C52.4508 125.846 52.1306 125.605 51.915 125.28C51.6993 124.955 51.601 124.566 51.6365 124.178L57.3071 62.2543C57.3356 61.935 57.4309 61.6253 57.5869 61.3452C57.7428 61.0652 57.956 60.8211 58.2124 60.6288C58.4688 60.4364 58.7629 60.3002 59.0754 60.2289C59.3879 60.1575 59.7119 60.1527 60.0264 60.2147L146.828 77.1952L152.419 66.0844C152.58 65.7704 152.834 65.5135 153.146 65.3483C153.458 65.1832 153.813 65.1177 154.164 65.1608L179.477 68.4024C179.702 68.4306 179.919 68.5031 180.115 68.6156C180.311 68.7282 180.484 68.8785 180.621 69.058C180.759 69.2375 180.86 69.4425 180.918 69.6613C180.976 69.88 180.99 70.1081 180.96 70.3323L180.097 76.6993C180.037 77.1482 179.802 77.5552 179.443 77.8315C179.084 78.1078 178.63 78.2309 178.181 78.174V78.174Z" fill="#776FE7"/>
<path d="M60.8071 103.934L67.8801 106.191L74.6648 71.7873L63.8064 70.12L60.8071 103.934Z" fill="#E4E2FA"/>
<path d="M116.303 121.647L123.376 123.905L141.667 85.3798L133.877 83.4926L116.303 121.647Z" fill="#E4E2FA"/>
<path d="M89.0991 112.964L95.6281 115.048L109.613 78.7457L98.9285 76.5343L89.0991 112.964Z" fill="#E4E2FA"/>
<path d="M80.8233 73.1534L91.508 75.3648L82.026 110.707L74.9531 108.449L80.8233 73.1534Z" fill="#E4E2FA"/>
<path d="M127.174 81.9528L116.489 79.7413L103.245 117.479L109.774 119.563L127.174 81.9528Z" fill="#E4E2FA"/>
<path d="M62.1723 148.321C66.7459 148.321 70.4535 144.614 70.4535 140.04C70.4535 135.466 66.7459 131.759 62.1723 131.759C57.5987 131.759 53.8911 135.466 53.8911 140.04C53.8911 144.614 57.5987 148.321 62.1723 148.321Z" fill="#776FE7" fill-opacity="0.2"/>
<path d="M113.859 164.819C118.433 164.819 122.141 161.111 122.141 156.538C122.141 151.964 118.433 148.256 113.859 148.256C109.286 148.256 105.578 151.964 105.578 156.538C105.578 161.111 109.286 164.819 113.859 164.819Z" fill="#776FE7" fill-opacity="0.2"/>
</svg>
