<svg width="40" height="40" viewBox="0 0 40 40" fill="none" xmlns="http://www.w3.org/2000/svg">
<rect width="40" height="40" rx="8" fill="#776FE7" fill-opacity="0.1"/>
<path d="M19.9998 27.6459L18.7915 26.5625C17.3887 25.2986 16.229 24.2084 15.3123 23.2917C14.3957 22.375 13.6665 21.5521 13.1248 20.8229C12.5832 20.0938 12.2047 19.4236 11.9894 18.8125C11.7741 18.2014 11.6665 17.5764 11.6665 16.9375C11.6665 15.632 12.104 14.5417 12.979 13.6667C13.854 12.7917 14.9443 12.3542 16.2498 12.3542C16.9721 12.3542 17.6596 12.507 18.3123 12.8125C18.9651 13.1181 19.5276 13.5486 19.9998 14.1042C20.4721 13.5486 21.0346 13.1181 21.6873 12.8125C22.3401 12.507 23.0276 12.3542 23.7498 12.3542C25.0554 12.3542 26.1457 12.7917 27.0207 13.6667C27.8957 14.5417 28.3332 15.632 28.3332 16.9375C28.3332 17.5764 28.2255 18.2014 28.0103 18.8125C27.795 19.4236 27.4165 20.0938 26.8748 20.8229C26.3332 21.5521 25.604 22.375 24.6873 23.2917C23.7707 24.2084 22.6109 25.2986 21.2082 26.5625L19.9998 27.6459Z" fill="#776FE7"/>
</svg>
