<svg width="143" height="160" viewBox="0 0 143 160" fill="none" xmlns="http://www.w3.org/2000/svg">
<path d="M135.868 53.7428C135.868 53.7428 114.171 72.0302 137.272 112.886C157.788 149.169 108.762 163.485 87.9652 158.825C61.0243 152.788 46.5177 117.67 25.4556 128.172C4.39341 138.674 -14.6249 88.2942 16.083 70.6752C54.2826 48.7578 30.6149 34.9027 34.4923 18.2444C37.2748 6.28866 72.2437 -11.4487 90.1509 10.1933C105.22 28.4046 113.069 22.2121 120.275 20.0056C130.67 16.8231 152.589 35.2284 135.868 53.7428Z" fill="#E4E2FA"/>
<path d="M113.922 26.9214L67.1067 19.2501C63.6731 18.6875 60.4335 21.0149 59.8709 24.4485L43.6781 123.267C43.1155 126.7 45.4429 129.94 48.8765 130.503L95.6917 138.174C99.1253 138.736 102.365 136.409 102.928 132.976L119.12 34.1573C119.683 30.7237 117.356 27.4841 113.922 26.9214Z" fill="#7A70EB" fill-opacity="0.5"/>
<path d="M112.382 29.7065L67.6765 22.3809C65.3874 22.0058 63.2277 23.5573 62.8526 25.8464L46.9501 122.894C46.575 125.183 48.1265 127.342 50.4156 127.717L95.1213 135.043C97.4104 135.418 99.5701 133.867 99.9452 131.578L115.848 34.5304C116.223 32.2413 114.671 30.0816 112.382 29.7065Z" fill="#776FE7"/>
<path d="M24.0709 101.926C23.888 102.562 23.8976 103.237 24.0985 103.867C24.2995 104.497 24.6827 105.054 25.1998 105.466C25.7169 105.878 26.3446 106.128 27.0036 106.183C27.6625 106.239 28.3231 106.098 28.9019 105.778C29.4806 105.458 29.9514 104.973 30.2549 104.386C30.5583 103.798 30.6807 103.134 30.6066 102.477C30.5324 101.819 30.2651 101.199 29.8384 100.694C29.4117 100.189 28.8447 99.8213 28.2093 99.6383C27.3571 99.3931 26.4424 99.4964 25.6663 99.9254C24.8903 100.355 24.3164 101.074 24.0709 101.926V101.926Z" fill="#776FE7"/>
<path d="M31.5518 94.9519C31.5435 95.0902 31.5192 95.2271 31.4794 95.3599C31.4082 95.6073 31.2888 95.8383 31.1281 96.0394C30.9673 96.2405 30.7683 96.4079 30.5426 96.5318C30.3182 96.6567 30.0712 96.7357 29.8159 96.7641C29.5607 96.7925 29.3023 96.7698 29.056 96.6971C28.248 96.4641 27.4021 96.3927 26.5665 96.487C25.7309 96.5813 24.9221 96.8394 24.1864 97.2466C23.4507 97.6538 22.8025 98.2021 22.2789 98.8601C21.7553 99.5181 21.3666 100.273 21.135 101.081C21.0637 101.328 20.9444 101.559 20.784 101.759C20.6237 101.96 20.4253 102.128 20.2002 102.252C19.7458 102.503 19.2103 102.563 18.7115 102.419C18.2128 102.274 17.7918 101.938 17.541 101.484C17.2902 101.029 17.2302 100.494 17.3742 99.9951C17.745 98.692 18.3711 97.4756 19.216 96.4166C20.0609 95.3575 21.1078 94.4769 22.2959 93.8259C23.1864 93.3318 24.1443 92.9702 25.1392 92.7526L31.5518 94.9519Z" fill="#776FE7"/>
<path d="M16.6942 89.8641L21.36 91.4636C21.2601 91.5075 21.1628 91.5572 21.0687 91.6124C19.5895 92.424 18.2862 93.521 17.2341 94.84C16.182 96.1589 15.4022 97.6736 14.9397 99.2961C14.8701 99.5443 14.752 99.7762 14.5923 99.9786C14.4327 100.181 14.2346 100.35 14.0094 100.475C13.7843 100.601 13.5365 100.681 13.2804 100.71C13.0243 100.739 12.765 100.718 12.5172 100.646C12.2695 100.575 12.0383 100.456 11.837 100.295C11.6356 100.134 11.4681 99.9347 11.344 99.7088C11.2199 99.4828 11.1417 99.2346 11.1139 98.9783C11.0861 98.7221 11.1093 98.4629 11.1821 98.2156C12.1149 94.9302 14.0401 92.0134 16.6942 89.8641V89.8641Z" fill="#776FE7"/>
<path d="M33.2588 89.168C33.1142 89.666 32.7786 90.0865 32.3252 90.3381C31.8718 90.5896 31.3374 90.6517 30.8384 90.5108C29.9334 90.2479 29.0022 90.0854 28.0616 90.0263L20.6079 87.4777C24.1762 85.9135 28.1809 85.654 31.9212 86.7446C32.4194 86.8893 32.84 87.2257 33.0907 87.6799C33.3414 88.1342 33.4018 88.6693 33.2588 89.168V89.168Z" fill="#776FE7"/>
<path d="M9.83315 87.5197L13.9212 88.9145C11.4591 91.2669 9.66921 94.2336 8.73621 97.5086C8.6651 97.756 8.54572 97.987 8.38495 98.1881C8.22419 98.3892 8.02522 98.5566 7.79951 98.6805C7.57607 98.8063 7.32974 98.8863 7.07498 98.9156C6.82022 98.945 6.56217 98.9231 6.31596 98.8514C6.06879 98.7809 5.83796 98.6623 5.63666 98.5025C5.43537 98.3427 5.26757 98.1447 5.14288 97.92C5.01819 97.6952 4.93905 97.4481 4.90999 97.1927C4.88094 96.9373 4.90253 96.6787 4.97354 96.4317C5.91177 93.1371 7.57181 90.0928 9.83315 87.5197V87.5197Z" fill="#776FE7"/>
<path d="M35.0465 82.9644C34.9016 83.4626 34.5652 83.883 34.111 84.1337C33.6567 84.3844 33.1217 84.4448 32.623 84.3017C30.1879 83.5941 27.6367 83.3765 25.1169 83.6612C22.5972 83.946 20.1589 84.7275 17.9431 85.9607C17.7196 86.0861 17.5021 86.2083 17.2932 86.3473L12.709 84.7753C15.6139 82.4384 19.0379 80.8339 22.6925 80.0969C26.3472 79.36 30.1255 79.5122 33.709 80.5408C34.2072 80.6856 34.6278 81.022 34.8785 81.4763C35.1292 81.9305 35.1896 82.4657 35.0465 82.9644V82.9644Z" fill="#776FE7"/>
<path d="M5.34007 87.7885L5.34004 87.7886C5.02496 88.7092 5.51586 89.711 6.43651 90.026L31.7175 98.6782C32.6382 98.9933 33.64 98.5024 33.955 97.5817L33.9551 97.5816C34.2701 96.661 33.7792 95.6592 32.8586 95.3442L7.57755 86.692C6.65691 86.3769 5.65515 86.8678 5.34007 87.7885Z" fill="#776FE7"/>
<path d="M139.024 19.21C135.624 17.7891 133.22 19.1521 132.652 20.5125C132.241 21.4951 132.883 22.2958 133.563 22.5801C134.923 23.1483 135.18 20.9769 137.749 22.0504C139.009 22.5766 139.784 23.5519 139.3 24.7108C138.732 26.0713 136.995 26.2629 135.869 26.621C134.875 26.9456 133.487 27.5787 132.581 29.7453C132.034 31.0552 132.229 31.5804 133.262 32.012C134.496 32.5277 134.979 32.0787 135.179 31.6C135.727 30.2899 136.068 29.5446 137.906 29.0402C138.807 28.7953 141.664 27.9766 142.653 25.6086C143.642 23.2405 142.249 20.5571 139.024 19.21Z" fill="#776FE7"/>
<path d="M132.56 33.7609C132.047 33.5533 131.473 33.5565 130.962 33.7696C130.451 33.9828 130.045 34.3887 129.832 34.8994C129.619 35.4101 129.615 35.9844 129.823 36.4975C130.03 37.0107 130.431 37.4214 130.939 37.6406C131.453 37.852 132.03 37.8514 132.543 37.639C133.057 37.4265 133.465 37.0195 133.679 36.5068C133.893 35.9942 133.896 35.4176 133.686 34.903C133.477 34.3885 133.072 33.9779 132.56 33.7609V33.7609Z" fill="#776FE7"/>
<path d="M75.0616 64.3768C75.3685 62.4876 74.8232 60.8271 73.8436 60.668C72.864 60.5089 71.8211 61.9113 71.5142 63.8005C71.2073 65.6897 71.7526 67.3502 72.7322 67.5093C73.7118 67.6685 74.7547 66.266 75.0616 64.3768Z" fill="white"/>
<path d="M95.4886 67.7298C95.7985 65.8218 95.2556 64.1461 94.276 63.987C93.2964 63.8279 92.251 65.2456 91.9411 67.1535C91.6311 69.0615 92.174 70.7372 93.1536 70.8964C94.1332 71.0555 95.1786 69.6378 95.4886 67.7298Z" fill="white"/>
<path d="M87.1505 84.1771C87.0792 84.1773 87.0087 84.1628 86.9433 84.1347C86.8778 84.1066 86.8188 84.0655 86.7698 84.0138L86.031 83.2359C84.8458 81.9916 83.2846 81.1712 81.5875 80.9008C79.8905 80.6304 78.1516 80.925 76.6384 81.7394L75.6945 82.249C75.6338 82.2818 75.5673 82.3023 75.4987 82.3093C75.4301 82.3164 75.3608 82.3099 75.2947 82.2901C75.2286 82.2704 75.1671 82.2378 75.1136 82.1943C75.0601 82.1508 75.0157 82.0972 74.983 82.0365C74.9502 81.9758 74.9297 81.9093 74.9227 81.8407C74.9156 81.7721 74.9222 81.7028 74.9419 81.6368C74.9616 81.5707 74.9942 81.5092 75.0377 81.4557C75.0812 81.4022 75.1348 81.3578 75.1955 81.325L76.1394 80.8154C77.8557 79.8917 79.8279 79.5576 81.7526 79.8642C83.6773 80.1709 85.448 81.1014 86.7922 82.5127L87.531 83.2905C87.6017 83.365 87.649 83.4585 87.6671 83.5596C87.6852 83.6606 87.6732 83.7648 87.6327 83.8591C87.5922 83.9535 87.525 84.0339 87.4393 84.0904C87.3535 84.1469 87.2532 84.177 87.1505 84.177V84.1771Z" fill="white"/>
</svg>
