<svg width="40" height="40" viewBox="0 0 40 40" fill="none" xmlns="http://www.w3.org/2000/svg">
<rect width="40" height="40" rx="8" fill="#776FE7" fill-opacity="0.1"/>
<path d="M18.325 12.317C18.751 10.561 21.249 10.561 21.675 12.317C21.7389 12.5808 21.8642 12.8258 22.0407 13.032C22.2172 13.2382 22.4399 13.3999 22.6907 13.5037C22.9414 13.6076 23.2132 13.6509 23.4838 13.6299C23.7544 13.6089 24.0162 13.5243 24.248 13.383C25.791 12.443 27.558 14.209 26.618 15.753C26.4769 15.9847 26.3924 16.2463 26.3715 16.5168C26.3506 16.7872 26.3938 17.0588 26.4975 17.3094C26.6013 17.56 26.7627 17.7826 26.9687 17.9591C27.1747 18.1355 27.4194 18.2609 27.683 18.325C29.439 18.751 29.439 21.249 27.683 21.675C27.4192 21.7389 27.1742 21.8642 26.968 22.0407C26.7618 22.2172 26.6001 22.4399 26.4963 22.6907C26.3924 22.9414 26.3491 23.2132 26.3701 23.4838C26.3911 23.7544 26.4757 24.0162 26.617 24.248C27.557 25.791 25.791 27.558 24.247 26.618C24.0153 26.4769 23.7537 26.3924 23.4832 26.3715C23.2128 26.3506 22.9412 26.3938 22.6906 26.4975C22.44 26.6013 22.2174 26.7627 22.0409 26.9687C21.8645 27.1747 21.7391 27.4194 21.675 27.683C21.249 29.439 18.751 29.439 18.325 27.683C18.2611 27.4192 18.1358 27.1742 17.9593 26.968C17.7828 26.7618 17.5601 26.6001 17.3093 26.4963C17.0586 26.3924 16.7868 26.3491 16.5162 26.3701C16.2456 26.3911 15.9838 26.4757 15.752 26.617C14.209 27.557 12.442 25.791 13.382 24.247C13.5231 24.0153 13.6076 23.7537 13.6285 23.4832C13.6494 23.2128 13.6062 22.9412 13.5025 22.6906C13.3987 22.44 13.2373 22.2174 13.0313 22.0409C12.8253 21.8645 12.5806 21.7391 12.317 21.675C10.561 21.249 10.561 18.751 12.317 18.325C12.5808 18.2611 12.8258 18.1358 13.032 17.9593C13.2382 17.7828 13.3999 17.5601 13.5037 17.3093C13.6076 17.0586 13.6509 16.7868 13.6299 16.5162C13.6089 16.2456 13.5243 15.9838 13.383 15.752C12.443 14.209 14.209 12.442 15.753 13.382C16.753 13.99 18.049 13.452 18.325 12.317Z" stroke="#776FE7" stroke-width="2" stroke-linecap="round" stroke-linejoin="round"/>
<path d="M17 20C17 20.7956 17.3161 21.5587 17.8787 22.1213C18.4413 22.6839 19.2044 23 20 23C20.7956 23 21.5587 22.6839 22.1213 22.1213C22.6839 21.5587 23 20.7956 23 20C23 19.2044 22.6839 18.4413 22.1213 17.8787C21.5587 17.3161 20.7956 17 20 17C19.2044 17 18.4413 17.3161 17.8787 17.8787C17.3161 18.4413 17 19.2044 17 20Z" stroke="#776FE7" stroke-width="2" stroke-linecap="round" stroke-linejoin="round"/>
</svg>
