<svg width="24" height="24" viewBox="0 0 24 24" fill="none" xmlns="http://www.w3.org/2000/svg">
<path d="M18.97 8.70245L13.637 4.55444C13.169 4.19035 12.593 3.99268 12 3.99268C11.407 3.99268 10.831 4.19035 10.363 4.55444L5.029 8.70245C4.70844 8.95173 4.44909 9.27097 4.27076 9.63579C4.09242 10.0006 3.99981 10.4014 4 10.8074V18.0074C4 18.5379 4.21071 19.0466 4.58579 19.4217C4.96086 19.7967 5.46957 20.0074 6 20.0074H18C18.5304 20.0074 19.0391 19.7967 19.4142 19.4217C19.7893 19.0466 20 18.5379 20 18.0074V10.8074C20 9.98444 19.62 9.20745 18.97 8.70245Z" fill="#776FE7"/>
<path d="M15.97 14.9924C13.76 16.3254 10.178 16.3254 7.96997 14.9924M18.97 8.70245L13.637 4.55444C13.169 4.19035 12.593 3.99268 12 3.99268C11.407 3.99268 10.831 4.19035 10.363 4.55444L5.029 8.70245C4.70844 8.95173 4.44909 9.27097 4.27076 9.63579C4.09242 10.0006 3.99981 10.4014 4 10.8074V18.0074C4 18.5379 4.21071 19.0466 4.58579 19.4217C4.96086 19.7967 5.46957 20.0074 6 20.0074H18C18.5304 20.0074 19.0391 19.7967 19.4142 19.4217C19.7893 19.0466 20 18.5379 20 18.0074V10.8074C20 9.98444 19.62 9.20745 18.97 8.70245Z" stroke="#F9F9FB" stroke-linecap="round" stroke-linejoin="round"/>
</svg>
